<svg id="visual" viewBox="0 0 900 600" width="900" height="600" xmlns="http://www.w3.org/2000/svg" xmlns:xlink="http://www.w3.org/1999/xlink" version="1.1"><rect x="0" y="0" width="900" height="600" fill="#f2eadf"></rect><defs><linearGradient id="grad1_0" x1="33.3%" y1="100%" x2="100%" y2="0%"><stop offset="20%" stop-color="#f2eadf" stop-opacity="1"></stop><stop offset="80%" stop-color="#f2eadf" stop-opacity="1"></stop></linearGradient></defs><defs><linearGradient id="grad2_0" x1="0%" y1="100%" x2="66.7%" y2="0%"><stop offset="20%" stop-color="#f2eadf" stop-opacity="1"></stop><stop offset="80%" stop-color="#f2eadf" stop-opacity="1"></stop></linearGradient></defs><g transform="translate(900, 600)"><path d="M-189.3 0C-180.8 -22.7 -172.3 -45.4 -163.5 -67.7C-154.8 -90 -145.7 -111.9 -130.8 -130.8C-115.9 -149.7 -95.2 -165.6 -72.4 -174.9C-49.7 -184.1 -24.8 -186.7 0 -189.3L0 0Z" fill="#ff4617"></path></g><g transform="translate(0, 0)"><path d="M189.3 0C189.6 27.6 190 55.2 174.9 72.4C159.8 89.7 129.3 96.6 109.6 109.6C89.9 122.6 81.1 141.8 64.7 156.1C48.2 170.4 24.1 179.9 0 189.3L0 0Z" fill="#ff4617"></path></g></svg>