<svg id="visual" viewBox="0 0 900 600" width="900" height="600" xmlns="http://www.w3.org/2000/svg" xmlns:xlink="http://www.w3.org/1999/xlink" version="1.1"><rect x="0" y="0" width="900" height="600" fill="#f2eadf"></rect><defs><linearGradient id="grad1_0" x1="33.3%" y1="0%" x2="100%" y2="100%"><stop offset="20%" stop-color="#f2eadf" stop-opacity="1"></stop><stop offset="80%" stop-color="#f2eadf" stop-opacity="1"></stop></linearGradient></defs><defs><linearGradient id="grad2_0" x1="0%" y1="0%" x2="66.7%" y2="100%"><stop offset="20%" stop-color="#f2eadf" stop-opacity="1"></stop><stop offset="80%" stop-color="#f2eadf" stop-opacity="1"></stop></linearGradient></defs><g transform="translate(900, 0)"><path d="M0 216.3C-31.5 215.3 -63.1 214.3 -81.5 196.8C-100 179.3 -105.3 145.4 -125.9 125.9C-146.4 106.4 -182.2 101.4 -199.9 82.8C-217.5 64.2 -216.9 32.1 -216.3 0L0 0Z" fill="#e9e15b"></path></g><g transform="translate(0, 600)"><path d="M0 -216.3C31.2 -214.7 62.5 -213.1 81.1 -195.9C99.8 -178.6 105.9 -145.8 126.6 -126.6C147.2 -107.3 182.5 -101.6 199.9 -82.8C217.3 -64 216.8 -32 216.3 0L0 0Z" fill="#e9e15b"></path></g></svg>